<?xml version="1.0" encoding="UTF-8" standalone="no"?>
<!-- Created with Inkscape (http://www.inkscape.org/) -->

<svg
   width="140"
   height="100"
   viewBox="0 0 140 100"
   version="1.1"
   id="svg1"
   inkscape:version="1.4 (86a8ad7, 2024-10-11)"
   sodipodi:docname="model_type_icon.svg"
   inkscape:export-filename="icon_amp.svg"
   inkscape:export-xdpi="96"
   inkscape:export-ydpi="96"
   xmlns:inkscape="http://www.inkscape.org/namespaces/inkscape"
   xmlns:sodipodi="http://sodipodi.sourceforge.net/DTD/sodipodi-0.dtd"
   xmlns="http://www.w3.org/2000/svg"
   xmlns:svg="http://www.w3.org/2000/svg">
  <sodipodi:namedview
     id="namedview1"
     pagecolor="#ffffff"
     bordercolor="#000000"
     borderopacity="0.25"
     inkscape:showpageshadow="2"
     inkscape:pageopacity="0.0"
     inkscape:pagecheckerboard="0"
     inkscape:deskcolor="#d1d1d1"
     inkscape:document-units="px"
     showgrid="true"
     inkscape:zoom="7.6266517"
     inkscape:cx="79.654876"
     inkscape:cy="76.311338"
     inkscape:window-width="3840"
     inkscape:window-height="2054"
     inkscape:window-x="-11"
     inkscape:window-y="-11"
     inkscape:window-maximized="1"
     inkscape:current-layer="g60">
    <inkscape:grid
       id="grid1"
       units="px"
       originx="0"
       originy="0"
       spacingx="1"
       spacingy="1"
       empcolor="#0099e5"
       empopacity="0.30196078"
       color="#0099e5"
       opacity="0.14901961"
       empspacing="8"
       enabled="true"
       visible="true" />
    <inkscape:page
       x="0"
       y="0"
       width="140"
       height="100"
       id="page2"
       margin="0"
       bleed="0" />
  </sodipodi:namedview>
  <defs
     id="defs1" />
  <g
     inkscape:label="ICONS"
     inkscape:groupmode="layer"
     id="layer1">
    <g
       inkscape:groupmode="layer"
       id="g27"
       inkscape:label="preamp"
       style="display:inline"
       transform="translate(-1480,-125)">
      <path
         id="rect62"
         style="opacity:1;fill:#ffffff;fill-opacity:0.997537;fill-rule:evenodd;stroke:none;stroke-width:0.999997;stroke-linecap:round;stroke-linejoin:round;stroke-dasharray:none"
         d="m 1505,169 c -1.108,0 -2,0.892 -2,2 v 8 c 0,1.108 0.892,2 2,2 h 90 c 1.108,0 2,-0.892 2,-2 v -8 c 0,-1.108 -0.892,-2 -2,-2 z m 27,4 c 1.1046,0 2,0.89543 2,2 0,1.10457 -0.8954,2 -2,2 -1.1046,0 -2,-0.89543 -2,-2 0,-1.10457 0.8954,-2 2,-2 z m 8.0312,0 c 1.1046,0 2,0.89543 2,2 0,1.10457 -0.8954,2 -2,2 -1.1046,0 -2,-0.89543 -2,-2 0,-1.10457 0.8954,-2 2,-2 z m 7.9688,0 c 1.1046,0 2,0.89543 2,2 0,1.10457 -0.8954,2 -2,2 -1.1046,0 -2,-0.89543 -2,-2 0,-1.10457 0.8954,-2 2,-2 z m 8,0 c 1.1046,0 2,0.89543 2,2 0,1.10457 -0.8954,2 -2,2 -1.1046,0 -2,-0.89543 -2,-2 0,-1.10457 0.8954,-2 2,-2 z m 8,0 c 1.1046,0 2,0.89543 2,2 0,1.10457 -0.8954,2 -2,2 -1.1046,0 -2,-0.89543 -2,-2 0,-1.10457 0.8954,-2 2,-2 z m 8,0 c 1.1046,0 2,0.89543 2,2 0,1.10457 -0.8954,2 -2,2 -1.1046,0 -2,-0.89543 -2,-2 0,-1.10457 0.8954,-2 2,-2 z m 12.2754,0 h 1.4492 c 0.6983,0 1.2754,0.57708 1.2754,1.27539 v 1.44922 c 0,0.69831 -0.5771,1.27539 -1.2754,1.27539 h -1.4492 c -0.6983,0 -1.2754,-0.57708 -1.2754,-1.27539 v -1.44922 c 0,-0.69831 0.5771,-1.27539 1.2754,-1.27539 z m 5,0 h 1.4492 c 0.6983,0 1.2754,0.57708 1.2754,1.27539 v 1.44922 c 0,0.69831 -0.5771,1.27539 -1.2754,1.27539 h -1.4492 c -0.6983,0 -1.2754,-0.57708 -1.2754,-1.27539 v -1.44922 C 1588,173.57708 1588.5771,173 1589.2754,173 Z M 1510,173.5 c 0.8224,0 1.5,0.67765 1.5,1.5 0,0.82235 -0.6776,1.5 -1.5,1.5 -0.8224,0 -1.5,-0.67765 -1.5,-1.5 0,-0.82235 0.6776,-1.5 1.5,-1.5 z m 74.2754,0.5 c -0.1616,0 -0.2754,0.11378 -0.2754,0.27539 v 1.44922 c 0,0.16161 0.1138,0.27539 0.2754,0.27539 h 1.4492 c 0.1616,0 0.2754,-0.11378 0.2754,-0.27539 v -1.44922 C 1586,174.11378 1585.8862,174 1585.7246,174 Z m 5,0 c -0.1616,0 -0.2754,0.11378 -0.2754,0.27539 v 1.44922 c 0,0.16161 0.1138,0.27539 0.2754,0.27539 h 1.4492 c 0.1616,0 0.2754,-0.11378 0.2754,-0.27539 v -1.44922 C 1591,174.11378 1590.8862,174 1590.7246,174 Z M 1510,174.5 c -0.2856,0 -0.5,0.21435 -0.5,0.5 0,0.28565 0.2144,0.5 0.5,0.5 0.2856,0 0.5,-0.21435 0.5,-0.5 0,-0.28565 -0.2144,-0.5 -0.5,-0.5 z"
         sodipodi:nodetypes="sssssssssssssssssssssssssssssssssssssssssssssssssssssssssssssssssssssssssssssssssssss" />
    </g>
  </g>
</svg>
