<?xml version="1.0" encoding="UTF-8" standalone="no"?>
<svg
   width="140"
   height="100"
   version="1.1"
   id="svg1"
   sodipodi:docname="icon_amp_cab.svg"
   inkscape:version="1.4 (86a8ad7, 2024-10-11)"
   xmlns:inkscape="http://www.inkscape.org/namespaces/inkscape"
   xmlns:sodipodi="http://sodipodi.sourceforge.net/DTD/sodipodi-0.dtd"
   xmlns="http://www.w3.org/2000/svg"
   xmlns:svg="http://www.w3.org/2000/svg">
  <defs
     id="defs1" />
  <sodipodi:namedview
     id="namedview1"
     pagecolor="#5a273a"
     bordercolor="#000000"
     borderopacity="0.25"
     inkscape:showpageshadow="2"
     inkscape:pageopacity="0.0"
     inkscape:pagecheckerboard="0"
     inkscape:deskcolor="#d1d1d1"
     showgrid="true"
     inkscape:zoom="49.752033"
     inkscape:cx="70.147887"
     inkscape:cy="18.622355"
     inkscape:window-width="3840"
     inkscape:window-height="2054"
     inkscape:window-x="-11"
     inkscape:window-y="-11"
     inkscape:window-maximized="1"
     inkscape:current-layer="svg1">
    <inkscape:grid
       id="grid1"
       units="px"
       originx="0"
       originy="0"
       spacingx="1"
       spacingy="1"
       empcolor="#0099e5"
       empopacity="0.30196078"
       color="#0099e5"
       opacity="0.14901961"
       empspacing="5"
       enabled="true"
       visible="true" />
  </sodipodi:namedview>
  <g
     style="display:inline"
     id="g1">
    <path
       d="m 1545,126 c -2.2091,0 -4,1.79086 -4,4 v 14 c 0,2.20914 1.7909,4 4,4 h 3 v 2 h -11 c -2.2091,0 -4,1.79086 -4,4 v 62 c 0,2.20914 1.7909,4 4,4 h 3 v 2 h 5 v -2 h 46 v 2 h 5 v -2 h 3 c 2.2091,0 4,-1.79086 4,-4 v -62 c 0,-2.20914 -1.7909,-4 -4,-4 h -11 v -2 h 3 c 2.2091,0 4,-1.79086 4,-4 v -14 c 0,-2.20914 -1.7909,-4 -4,-4 z m 1,2 h 44 c 2,0 3,1 3,3 v 12 c 0,2 -1,3 -3,3 h -44 c -2,0 -3,-1 -3,-3 v -12 c 0,-2 1,-3 3,-3 z m 10,3 v 3 h 24 v -3 z m -12,5 v 7 c 0,1.4 0.7,2 2,2 h 44 c 1.2,0 2,-0.6 2,-2 v -7 h -6 c -0.6817,0.0203 -1.3281,0.30758 -1.8,0.8 l -1.2,1.2 c -0.6419,0.62913 -1.5013,0.9872 -2.4,1 H 1555 c -0.635,-0.009 -1.2428,-0.25921 -1.7,-0.7 l -1.4,-1.4 c -0.5846,-0.5804 -1.3762,-0.90423 -2.2,-0.9 z m 4.6,4.9 c 0.6,0 1,0.4 1,1 0,0.5 -0.4,1 -1,1 -0.5523,0 -1,-0.44772 -1,-1 0,-0.6 0.5,-1 1,-1 z m 9.4,0.1 c 0.5523,0 1,0.44772 1,1 0,0.55228 -0.4477,1 -1,1 -0.5523,0 -1,-0.44772 -1,-1 0,-0.55228 0.4477,-1 1,-1 z m 4,0 c 0.5523,0 1,0.44772 1,1 0,0.55228 -0.4477,1 -1,1 -0.5523,0 -1,-0.44772 -1,-1 0,-0.55228 0.4477,-1 1,-1 z m 4,0 c 0.5523,0 1,0.44772 1,1 0,0.55228 -0.4477,1 -1,1 -0.5523,0 -1,-0.44772 -1,-1 0,-0.55228 0.4477,-1 1,-1 z m 5,0 c 0.5523,0 1,0.44772 1,1 0,0.55228 -0.4477,1 -1,1 -0.5523,0 -1,-0.44772 -1,-1 0,-0.55228 0.4477,-1 1,-1 z m 4,0 c 0.5523,0 1,0.44772 1,1 0,0.55228 -0.4477,1 -1,1 -0.5523,0 -1,-0.44772 -1,-1 0,-0.55228 0.4477,-1 1,-1 z m 4,0 c 0.5523,0 1,0.44772 1,1 0,0.55228 -0.4477,1 -1,1 -0.5523,0 -1,-0.44772 -1,-1 0,-0.55228 0.4477,-1 1,-1 z m 5.3,0 h 1.5 c 0.126,0.0443 0.2076,0.16662 0.2,0.3 v 1.4 c 0,0.16569 -0.1343,0.3 -0.3,0.3 h -1.5 c -0.126,-0.0443 -0.2076,-0.16662 -0.2,-0.3 v -1.4 c 0,-0.16569 0.1343,-0.3 0.3,-0.3 z m 3,0 h 1.4 c 0.1657,0 0.3,0.13431 0.3,0.3 v 1.4 c 0,0.16569 -0.1343,0.3 -0.3,0.3 h -1.5 c -0.126,-0.0443 -0.2076,-0.16662 -0.2,-0.3 v -1.4 c -0.01,-0.13338 0.074,-0.25568 0.2,-0.3 z m -38.7,0.4 c -0.3,0 -0.5,0.2 -0.5,0.5 0,0.3 0.2,0.5 0.5,0.5 0.3,0 0.5,-0.2 0.5,-0.5 0,-0.3 -0.2,-0.5 -0.5,-0.5 z m 35.9,0.1 v 1 h 1 v -1 z m 3,0 v 1 h 1 v -1 z M 1553,148 h 30 v 2 h -30 z m -15.5,4 h 61 c 1.4,0 2.5,1.1 2.5,2.5 v 61 c 0,1.4 -1.1,2.5 -2.5,2.5 h -61 c -1.3807,0 -2.5,-1.11929 -2.5,-2.5 v -61 c 0,-1.4 1.1,-2.5 2.5,-2.5 z m 0,1 c -0.8,0 -1.5,0.7 -1.5,1.5 v 61 c 0,0.8 0.7,1.5 1.5,1.5 h 61 c 0.8,0 1.5,-0.7 1.5,-1.5 v -61 c 0,-0.8 -0.7,-1.5 -1.5,-1.5 z m 15.5,5 c 6.6274,0 12,5.37258 12,12 0,6.62742 -5.3726,12 -12,12 -6.6274,0 -12,-5.37258 -12,-12 0,-6.62742 5.3726,-12 12,-12 z m 0,2 c -5.5229,0 -10,4.47715 -10,10 0,5.52285 4.4771,10 10,10 5.5229,0 10,-4.47715 10,-10 0,-5.52285 -4.4771,-10 -10,-10 z m 0,7 c 1.6569,0 3,1.34315 3,3 0,2.6729 -3.2314,4.01101 -5.1212,2.12121 C 1548.989,170.23142 1550.3271,167 1553,167 Z m 0,1 c -1.1046,0 -2,0.89543 -2,2 0,1.1 0.9,2 2,2 1.1046,0 2,-0.89543 2,-2 0,-1.10457 -0.8954,-2 -2,-2 z m 0,20 c 6.6274,0 12,5.37258 12,12 0,6.62742 -5.3726,12 -12,12 -6.6274,0 -12,-5.37258 -12,-12 0,-6.62742 5.3726,-12 12,-12 z m 0,2 c -5.5229,0 -10,4.47715 -10,10 0,5.52285 4.4771,10 10,10 5.5229,0 10,-4.47715 10,-10 0,-5.52285 -4.4771,-10 -10,-10 z m 0,7 c 1.6569,0 3,1.34315 3,3 0,2.6729 -3.2314,4.01101 -5.1212,2.12121 C 1548.989,200.23142 1550.3271,197 1553,197 Z m 0,1 c -1.1046,0 -2,0.89543 -2,2 0,1.1 0.9,2 2,2 1.1046,0 2,-0.89543 2,-2 0,-1.10457 -0.8954,-2 -2,-2 z m 31,-40 c 6.6274,0 12,5.37258 12,12 0,6.62742 -5.3726,12 -12,12 -6.6274,0 -12,-5.37258 -12,-12 0,-6.62742 5.3726,-12 12,-12 z m 0,2 c -5.5229,0 -10,4.47715 -10,10 0,5.52285 4.4771,10 10,10 5.5229,0 10,-4.47715 10,-10 0,-5.52285 -4.4771,-10 -10,-10 z m 0,7 c 1.6569,0 3,1.34315 3,3 0,2.6729 -3.2314,4.01101 -5.1212,2.12121 C 1579.989,170.23142 1581.3271,167 1584,167 Z m 0,1 c -1.1046,0 -2,0.89543 -2,2 0,1.1 0.9,2 2,2 1.1046,0 2,-0.89543 2,-2 0,-1.10457 -0.8954,-2 -2,-2 z m 0,20 c 6.6274,0 12,5.37258 12,12 0,6.62742 -5.3726,12 -12,12 -6.6274,0 -12,-5.37258 -12,-12 0,-6.62742 5.3726,-12 12,-12 z m 0,2 c -5.5229,0 -10,4.47715 -10,10 0,5.52285 4.4771,10 10,10 5.5229,0 10,-4.47715 10,-10 0,-5.52285 -4.4771,-10 -10,-10 z m 0,7 c 1.6569,0 3,1.34315 3,3 0,2.6729 -3.2314,4.01101 -5.1212,2.12121 C 1579.989,200.23142 1581.3271,197 1584,197 Z m 0,1 c -1.1046,0 -2,0.89543 -2,2 0,1.1 0.9,2 2,2 1.1046,0 2,-0.89543 2,-2 0,-1.10457 -0.8954,-2 -2,-2 z"
       style="opacity:1;fill:#ffffff;fill-opacity:0.997537;fill-rule:evenodd;stroke:none;stroke-width:2;stroke-linecap:round;stroke-linejoin:round;stroke-dasharray:none"
       transform="translate(-1498,-124)"
       id="path1"
       sodipodi:nodetypes="ssssccssssccccccccssssccssssssssssssssccccccssssccccccccccssssssssssssssssssssssssssssssssssssccssccsscsssscccccssssscccccccccccccccssssssssssssssssssssssssssssssssssssssssssssssssssssssssssssssssssssssssssssssssssssssssssssss" />
  </g>
</svg>
