<?xml version="1.0" encoding="UTF-8" standalone="no"?>
<!-- Created with Inkscape (http://www.inkscape.org/) -->

<svg
   width="140"
   height="100"
   viewBox="0 0 140 100"
   version="1.1"
   id="svg1"
   inkscape:version="1.4 (86a8ad7, 2024-10-11)"
   sodipodi:docname="model_type_icon.svg"
   inkscape:export-filename="icon_amp_cab_pedal.svg"
   inkscape:export-xdpi="96"
   inkscape:export-ydpi="96"
   xmlns:inkscape="http://www.inkscape.org/namespaces/inkscape"
   xmlns:sodipodi="http://sodipodi.sourceforge.net/DTD/sodipodi-0.dtd"
   xmlns="http://www.w3.org/2000/svg"
   xmlns:svg="http://www.w3.org/2000/svg">
  <sodipodi:namedview
     id="namedview1"
     pagecolor="#ffffff"
     bordercolor="#000000"
     borderopacity="0.25"
     inkscape:showpageshadow="2"
     inkscape:pageopacity="0.0"
     inkscape:pagecheckerboard="0"
     inkscape:deskcolor="#d1d1d1"
     inkscape:document-units="px"
     showgrid="true"
     inkscape:zoom="7.6266517"
     inkscape:cx="79.654876"
     inkscape:cy="76.311338"
     inkscape:window-width="3840"
     inkscape:window-height="2054"
     inkscape:window-x="-11"
     inkscape:window-y="-11"
     inkscape:window-maximized="1"
     inkscape:current-layer="g60">
    <inkscape:grid
       id="grid1"
       units="px"
       originx="0"
       originy="0"
       spacingx="1"
       spacingy="1"
       empcolor="#0099e5"
       empopacity="0.30196078"
       color="#0099e5"
       opacity="0.14901961"
       empspacing="8"
       enabled="true"
       visible="true" />
    <inkscape:page
       x="0"
       y="0"
       width="140"
       height="100"
       id="page2"
       margin="0"
       bleed="0" />
  </sodipodi:namedview>
  <defs
     id="defs1" />
  <g
     inkscape:label="ICONS"
     inkscape:groupmode="layer"
     id="layer1">
    <g
       inkscape:groupmode="layer"
       id="g23"
       inkscape:label="amp_pedal"
       style="display:inline"
       transform="translate(-1490,-121.97342)">
      <path
         id="rect27"
         style="opacity:1;fill:#ffffff;fill-rule:evenodd;stroke-linecap:round;stroke-linejoin:round"
         d="m 1555.5,127.97342 c -1.3764,0 -2.5,1.12365 -2.5,2.5 v 17 c 0,1.37635 1.1236,2.5 2.5,2.5 h 9 c 1.3764,0 2.5,-1.12365 2.5,-2.5 v -17 c 0,-1.37635 -1.1236,-2.5 -2.5,-2.5 z m 0,1 h 9 c 0.8396,0 1.5,0.66035 1.5,1.5 v 8.5 h -12 v -8.5 c 0,-0.83965 0.6604,-1.5 1.5,-1.5 z m 1,2 a 1.5,1.5 0 0 0 -1.5,1.5 1.5,1.5 0 0 0 1.5,1.5 1.5,1.5 0 0 0 1.5,-1.5 1.5,1.5 0 0 0 -1.5,-1.5 z m 7,0 a 1.5,1.5 0 0 0 -1.5,1.5 1.5,1.5 0 0 0 1.5,1.5 1.5,1.5 0 0 0 1.5,-1.5 1.5,1.5 0 0 0 -1.5,-1.5 z m -3.5,2.94141 a 1,1 0 0 0 -1,1 1,1 0 0 0 1,1 1,1 0 0 0 1,-1 1,1 0 0 0 -1,-1 z m -6,6.05859 h 12 v 7.5 c 0,0.83965 -0.6604,1.5 -1.5,1.5 h -9 c -0.8396,0 -1.5,-0.66035 -1.5,-1.5 z m 2,1 c -0.554,0 -1,0.446 -1,1 v 5 c 0,0.554 0.446,1 1,1 h 8 c 0.554,0 1,-0.446 1,-1 v -5 c 0,-0.554 -0.446,-1 -1,-1 z m -37,11.98633 c -3.3067,0 -6,2.70599 -6,6.02734 v 25.97266 c 0,3.32135 2.6933,6.02734 6,6.02734 h 82 c 3.3067,0 6,-2.70599 6,-6.02734 v -25.97266 c 0,-3.32135 -2.6933,-6.02734 -6,-6.02734 z m 0,2.00976 h 82 c 2.2333,0 4,1.77438 4,4.01758 v 25.97266 c 0,2.24319 -1.7667,4.01758 -4,4.01758 h -82 c -2.2333,0 -4,-1.77439 -4,-4.01758 v -25.97266 c 0,-2.2432 1.7667,-4.01758 4,-4.01758 z m 18,8.01758 v 5.02149 h 46 v -5.02149 z m -21,8 v 3.51563 1.2539 8.63868 c 0,1.94758 1.6052,3.51562 3.5996,3.51562 h 80.8008 c 1.9944,0 3.5996,-1.56804 3.5996,-3.51562 v -8.63868 -1.2539 -3.51563 h -3.5996 -4.3496 c -0.6223,-1e-4 -1.2198,0.24397 -1.6641,0.68164 l -2.375,2.33985 c -0.6482,0.63849 -1.5198,0.9958 -2.4277,0.99609 h -59.5625 c -0.6547,-3.8e-4 -1.2826,-0.2621 -1.7461,-0.72656 l -2.6016,-2.60352 c -0.4402,-0.44093 -1.0365,-0.6875 -1.6582,-0.6875 h -4.416 z m 29,9 c 1.1046,0 2,0.89835 2,2.00781 0,1.10947 -0.8954,2.00977 -2,2.00977 -1.1046,0 -2,-0.9003 -2,-2.00977 0,-1.10946 0.8954,-2.00781 2,-2.00781 z m 6,0 c 1.1046,0 2,0.89835 2,2.00781 0,1.10947 -0.8954,2.00977 -2,2.00977 -1.1046,0 -2,-0.9003 -2,-2.00977 0,-1.10946 0.8954,-2.00781 2,-2.00781 z m 6,0 c 1.1046,0 2,0.89835 2,2.00781 0,1.10947 -0.8954,2.00977 -2,2.00977 -1.1046,0 -2,-0.9003 -2,-2.00977 0,-1.10946 0.8954,-2.00781 2,-2.00781 z m 6,0 c 1.1046,0 2,0.89835 2,2.00781 0,1.10947 -0.8954,2.00977 -2,2.00977 -1.1046,0 -2,-0.9003 -2,-2.00977 0,-1.10946 0.8954,-2.00781 2,-2.00781 z m 6,0 c 1.1046,0 2,0.89835 2,2.00781 0,1.10947 -0.8954,2.00977 -2,2.00977 -1.1046,0 -2,-0.9003 -2,-2.00977 0,-1.10946 0.8954,-2.00781 2,-2.00781 z m 6,0 c 1.1046,0 2,0.89835 2,2.00781 0,1.10947 -0.8954,2.00977 -2,2.00977 -1.1046,0 -2,-0.9003 -2,-2.00977 0,-1.10946 0.8954,-2.00781 2,-2.00781 z m -53,0.50196 c 0.8225,0 1.5,0.67971 1.5,1.50585 0,0.82615 -0.6775,1.50782 -1.5,1.50782 -0.8225,0 -1.5,-0.68167 -1.5,-1.50782 0,-0.82614 0.6775,-1.50585 1.5,-1.50585 z m 70.5,0.4414 h 2 c 0.2761,0 0.5,0.2246 0.5,0.50195 v 2.07032 c 0,0.27735 -0.2239,0.50195 -0.5,0.50195 h -2 c -0.2761,0 -0.5,-0.2246 -0.5,-0.50195 v -2.07032 c 0,-0.27735 0.2239,-0.50195 0.5,-0.50195 z m 4,0 h 2 c 0.2761,0 0.5,0.2246 0.5,0.50195 v 2.07032 c 0,0.27735 -0.2239,0.50195 -0.5,0.50195 h -2 c -0.2761,0 -0.5,-0.2246 -0.5,-0.50195 v -2.07032 c 0,-0.27735 0.2239,-0.50195 0.5,-0.50195 z m -74.5,0.5625 c -0.2821,0 -0.5,0.21864 -0.5,0.50195 0,0.28331 0.2179,0.50196 0.5,0.50196 0.2821,0 0.5,-0.21865 0.5,-0.50196 0,-0.28331 -0.2179,-0.50195 -0.5,-0.50195 z m 71,0.44141 v 1.0664 h 1 v -1.0664 z m 4,0 v 1.0664 h 1 v -1.0664 z" />
    </g>
  </g>
</svg>
