<?xml version="1.0" encoding="UTF-8" standalone="no"?>
<!-- Created with Inkscape (http://www.inkscape.org/) -->

<svg
   width="140"
   height="100"
   viewBox="0 0 140 100"
   version="1.1"
   id="svg1"
   inkscape:version="1.4 (86a8ad7, 2024-10-11)"
   sodipodi:docname="icon_amp_cab_pedal.svg"
   inkscape:export-filename="icon_studio.svg"
   inkscape:export-xdpi="96"
   inkscape:export-ydpi="96"
   xmlns:inkscape="http://www.inkscape.org/namespaces/inkscape"
   xmlns:sodipodi="http://sodipodi.sourceforge.net/DTD/sodipodi-0.dtd"
   xmlns="http://www.w3.org/2000/svg"
   xmlns:svg="http://www.w3.org/2000/svg">
  <sodipodi:namedview
     id="namedview1"
     pagecolor="#003500"
     bordercolor="#000000"
     borderopacity="0.25"
     inkscape:showpageshadow="2"
     inkscape:pageopacity="0.0"
     inkscape:pagecheckerboard="0"
     inkscape:deskcolor="#d1d1d1"
     inkscape:document-units="px"
     showgrid="true"
     inkscape:zoom="5.8208001"
     inkscape:cx="-23.364485"
     inkscape:cy="96.206705"
     inkscape:window-width="3840"
     inkscape:window-height="2054"
     inkscape:window-x="-11"
     inkscape:window-y="-11"
     inkscape:window-maximized="1"
     inkscape:current-layer="g24">
    <inkscape:grid
       id="grid1"
       units="px"
       originx="0"
       originy="0"
       spacingx="1"
       spacingy="1"
       empcolor="#0099e5"
       empopacity="0.30196078"
       color="#0099e5"
       opacity="0.14901961"
       empspacing="8"
       enabled="true"
       visible="true" />
    <inkscape:page
       x="0"
       y="0"
       width="140"
       height="100"
       id="page2"
       margin="0"
       bleed="0" />
  </sodipodi:namedview>
  <defs
     id="defs1" />
  <g
     inkscape:label="ICONS"
     inkscape:groupmode="layer"
     id="layer1">
    <g
       inkscape:groupmode="layer"
       id="g24"
       inkscape:label="amp_pedal_cab"
       style="display:inline"
       transform="translate(-1480,-125)">
      <path
         id="rect27-7"
         style="display:inline;opacity:1;fill:#ffffff;fill-rule:evenodd;stroke:none;stroke-linecap:round;stroke-linejoin:round"
         d="m 1527,127 c -2.216,0 -4,1.784 -4,4 v 14 c 0,2.216 1.784,4 4,4 h 3 v 2 h -11 c -2.216,0 -4,1.784 -4,4 v 62 c 0,2.216 1.784,4 4,4 h 3 v 2 h 5 v -2 h 46 v 2 h 5 v -2 h 3 c 2.216,0 4,-1.784 4,-4 v -62 c 0,-2.216 -1.784,-4 -4,-4 h -11 v -2 h 3 c 2.216,0 4,-1.784 4,-4 v -14 c 0,-2.216 -1.784,-4 -4,-4 z m 1,2 h 44 c 1.9807,0 3,1.01928 3,3 v 12 c 0,1.98072 -1.0193,3 -3,3 h -44 c -1.9807,0 -3,-1.01928 -3,-3 v -12 c 0,-1.98072 1.0193,-3 3,-3 z m 10,3 v 3 h 24 v -3 z m -12,5 v 7 c 0,1.44402 0.7458,2 2,2 h 44 c 1.2147,0 2,-0.63114 2,-2 v -7 h -5.9375 c -0.6797,-1.2e-4 -1.3316,0.26964 -1.8125,0.75 l -1.2266,1.22656 c -0.6552,0.65533 -1.544,1.02348 -2.4707,1.02344 h -25.5215 c -0.6609,-1.1e-4 -1.2946,-0.26289 -1.7617,-0.73047 l -1.3496,-1.34961 c -0.589,-0.5889 -1.3878,-0.91978 -2.2207,-0.91992 z m 4.6055,4.88477 c 0.5493,0 1,0.45067 1,1 0,0.54932 -0.4507,1 -1,1 -0.5494,0 -1,-0.45068 -1,-1 0,-0.54933 0.4506,-1 1,-1 z M 1540,142 c 0.5523,0 1,0.44772 1,1 0,0.55228 -0.4477,1 -1,1 -0.5523,0 -1,-0.44772 -1,-1 0,-0.55228 0.4477,-1 1,-1 z m 4,0 c 0.5523,0 1,0.44772 1,1 0,0.55228 -0.4477,1 -1,1 -0.5523,0 -1,-0.44772 -1,-1 0,-0.55228 0.4477,-1 1,-1 z m 4,0 c 0.5523,0 1,0.44772 1,1 0,0.55228 -0.4477,1 -1,1 -0.5523,0 -1,-0.44772 -1,-1 0,-0.55228 0.4477,-1 1,-1 z m 9,0 c 0.5523,0 1,0.44772 1,1 0,0.55228 -0.4477,1 -1,1 -0.5523,0 -1,-0.44772 -1,-1 0,-0.55228 0.4477,-1 1,-1 z m 4,0 c 0.5523,0 1,0.44772 1,1 0,0.55228 -0.4477,1 -1,1 -0.5523,0 -1,-0.44772 -1,-1 0,-0.55228 0.4477,-1 1,-1 z m 5.25,0 h 1.5 c 0.1381,1e-5 0.25,0.11193 0.25,0.25 v 1.5 c 0,0.13807 -0.1119,0.24999 -0.25,0.25 h -1.5 c -0.1381,-1e-5 -0.25,-0.11193 -0.25,-0.25 v -1.5 c 0,-0.13807 0.1119,-0.24999 0.25,-0.25 z m 2.9922,0 h 1.5 c 0.1381,1e-5 0.25,0.11193 0.25,0.25 v 1.5 c 0,0.13807 -0.1119,0.24999 -0.25,0.25 h -1.5 c -0.1381,-1e-5 -0.25,-0.11193 -0.25,-0.25 v -1.5 c 0,-0.13807 0.1119,-0.24999 0.25,-0.25 z m -38.6367,0.38477 c -0.2791,0 -0.5,0.22089 -0.5,0.5 0,0.2791 0.2209,0.5 0.5,0.5 0.2791,0 0.5,-0.2209 0.5,-0.5 0,-0.27911 -0.2209,-0.5 -0.5,-0.5 z M 1566.5,142.5 v 1 h 1 v -1 z m 2.9922,0 v 1 h 1 v -1 z M 1535,149 h 30 v 2 h -30 z m -15.4688,4 h 60.9376 c 1.3931,0 2.5312,1.13759 2.5312,2.53125 v 60.9375 c 0,1.39366 -1.1381,2.53125 -2.5312,2.53125 h -60.9376 c -1.3931,0 -2.5312,-1.13759 -2.5312,-2.53125 v -60.9375 c 0,-1.39366 1.1379,-2.53125 2.5312,-2.53125 z m 0,1 c -0.8565,0 -1.5312,0.67429 -1.5312,1.53125 v 60.9375 c 0,0.85696 0.6747,1.53125 1.5312,1.53125 h 60.9376 c 0.8565,0 1.5312,-0.67429 1.5312,-1.53125 v -60.9375 C 1582,154.67429 1581.3252,154 1580.4688,154 Z M 1535,159 c 6.6156,0 12,5.38443 12,12 0,6.61557 -5.3844,12 -12,12 -6.6156,0 -12,-5.38443 -12,-12 0,-6.61557 5.3844,-12 12,-12 z m 31,0 c 6.6156,0 12,5.38443 12,12 0,6.61557 -5.3844,12 -12,12 -6.6156,0 -12,-5.38443 -12,-12 0,-6.61557 5.3844,-12 12,-12 z m -31,2 c -5.5347,0 -10,4.46531 -10,10 0,5.53469 4.4653,10 10,10 5.5347,0 10,-4.46531 10,-10 0,-5.53469 -4.4653,-10 -10,-10 z m 31,0 c -5.5347,0 -10,4.46531 -10,10 0,5.53469 4.4653,10 10,10 5.5347,0 10,-4.46531 10,-10 0,-5.53469 -4.4653,-10 -10,-10 z m -31.0312,7 c 1.6501,0 2.9995,1.34907 3,3 0,1.65093 -1.3499,3 -3,3 -1.6513,0 -3,-1.34907 -3,-3 -9e-4,-1.65093 1.3487,-3 3,-3 z m 0,1 c -1.1114,0 -2,0.88951 -2,2 -9e-4,1.11049 0.8886,2 2,2 1.1098,0 1.9996,-0.88951 2,-2 0,-1.11049 -0.8904,-2 -2,-2 z m -41.4688,7 c -1.3764,0 -2.5,1.12365 -2.5,2.5 v 17 c 0,1.37635 1.1236,2.5 2.5,2.5 h 9 c 1.3764,0 2.5,-1.12365 2.5,-2.5 v -17 c 0,-1.37635 -1.1236,-2.5 -2.5,-2.5 z m 0,1 h 9 c 0.8396,0 1.5,0.66035 1.5,1.5 v 8.5 h -12 v -8.5 c 0,-0.83965 0.6604,-1.5 1.5,-1.5 z m 1,2 c -0.8284,0 -1.5,0.67157 -1.5,1.5 0,0.82843 0.6716,1.5 1.5,1.5 0.8284,0 1.5,-0.67157 1.5,-1.5 0,-0.82843 -0.6716,-1.5 -1.5,-1.5 z m 7,0 c -0.8284,0 -1.5,0.67157 -1.5,1.5 0,0.82843 0.6716,1.5 1.5,1.5 0.8284,0 1.5,-0.67157 1.5,-1.5 0,-0.82843 -0.6716,-1.5 -1.5,-1.5 z m -3.5,2.94141 c -0.5523,0 -1,0.44772 -1,1 0,0.55228 0.4477,1 1,1 0.5523,0 1,-0.44772 1,-1 0,-0.55228 -0.4477,-1 -1,-1 z M 1492,188 h 12 v 7.5 c 0,0.83965 -0.6604,1.5 -1.5,1.5 h -9 c -0.8396,0 -1.5,-0.66035 -1.5,-1.5 z m 2,1 c -0.554,0 -1,0.446 -1,1 v 5 c 0,0.554 0.446,1 1,1 h 8 c 0.554,0 1,-0.446 1,-1 v -5 c 0,-0.554 -0.446,-1 -1,-1 z m 41,0 c 6.6156,0 12,5.38443 12,12 0,6.61557 -5.3844,12 -12,12 -6.6156,0 -12,-5.38443 -12,-12 0,-6.61557 5.3844,-12 12,-12 z m 31,0 c 6.6156,0 12,5.38443 12,12 0,6.61557 -5.3844,12 -12,12 -6.6156,0 -12,-5.38443 -12,-12 0,-6.61557 5.3844,-12 12,-12 z m -31,2 c -5.5347,0 -10,4.46531 -10,10 0,5.53469 4.4653,10 10,10 5.5347,0 10,-4.46531 10,-10 0,-5.53469 -4.4653,-10 -10,-10 z m 31,0 c -5.5347,0 -10,4.46531 -10,10 0,5.53469 4.4653,10 10,10 5.5347,0 10,-4.46531 10,-10 0,-5.53469 -4.4653,-10 -10,-10 z m -31.0312,7 c 1.6501,0 2.9995,1.34907 3,3 0,1.65093 -1.3499,3 -3,3 -1.6513,0 -3,-1.34907 -3,-3 -9e-4,-1.65093 1.3487,-3 3,-3 z m 0,1 c -1.1114,0 -2,0.88951 -2,2 -9e-4,1.11049 0.8886,2 2,2 1.1098,0 1.9996,-0.88951 2,-2 0,-1.11049 -0.8904,-2 -2,-2 z M 1566,168 c 1.6501,0 2.9995,1.34907 3,3 0,1.65093 -1.3499,3 -3,3 -1.6513,0 -3,-1.34907 -3,-3 -9e-4,-1.65093 1.3487,-3 3,-3 z m 0,1 c -1.1114,0 -2,0.88951 -2,2 -9e-4,1.11049 0.8886,2 2,2 1.1098,0 1.9996,-0.88951 2,-2 0,-1.11049 -0.8904,-2 -2,-2 z m 0,29 c 1.6501,0 2.9995,1.34907 3,3 0,1.65093 -1.3499,3 -3,3 -1.6513,0 -3,-1.34907 -3,-3 -9e-4,-1.65093 1.3487,-3 3,-3 z m 0,1 c -1.1114,0 -2,0.88951 -2,2 -9e-4,1.11049 0.8886,2 2,2 1.1098,0 1.9996,-0.88951 2,-2 0,-1.11049 -0.8904,-2 -2,-2 z m -13,-57 c 0.5523,0 1,0.44772 1,1 0,0.55228 -0.4477,1 -1,1 -0.5523,0 -1,-0.44772 -1,-1 0,-0.55228 0.4477,-1 1,-1 z"
         sodipodi:nodetypes="ssssccssssccccccccssssccssssssssssssssccccccssssccccccccccssssssssssssssssssssssssssssssccccccccccccccccccssssscccccccccccccccssssssssssssssssssssssssssssssssssssssscscsscscsssssssssssssccsssssssssssssssssccsssscsssssssssssssssssssssssssssssscscsscscsscscsscscsscscsscscssssss" />
    </g>
  </g>
</svg>
