<?xml version="1.0" encoding="UTF-8" standalone="no"?>
<!-- Created with Inkscape (http://www.inkscape.org/) -->

<svg
   width="140"
   height="100"
   viewBox="0 0 140 100"
   version="1.1"
   id="svg1"
   inkscape:version="1.4 (86a8ad7, 2024-10-11)"
   sodipodi:docname="model_type_icon.svg"
   inkscape:export-filename="icon_studio.svg"
   inkscape:export-xdpi="96"
   inkscape:export-ydpi="96"
   xmlns:inkscape="http://www.inkscape.org/namespaces/inkscape"
   xmlns:sodipodi="http://sodipodi.sourceforge.net/DTD/sodipodi-0.dtd"
   xmlns="http://www.w3.org/2000/svg"
   xmlns:svg="http://www.w3.org/2000/svg">
  <sodipodi:namedview
     id="namedview1"
     pagecolor="#ffffff"
     bordercolor="#000000"
     borderopacity="0.25"
     inkscape:showpageshadow="2"
     inkscape:pageopacity="0.0"
     inkscape:pagecheckerboard="0"
     inkscape:deskcolor="#d1d1d1"
     inkscape:document-units="px"
     showgrid="true"
     inkscape:zoom="16.463709"
     inkscape:cx="47.953959"
     inkscape:cy="28.972816"
     inkscape:window-width="3840"
     inkscape:window-height="2054"
     inkscape:window-x="-11"
     inkscape:window-y="-11"
     inkscape:window-maximized="1"
     inkscape:current-layer="g23">
    <inkscape:grid
       id="grid1"
       units="px"
       originx="0"
       originy="0"
       spacingx="1"
       spacingy="1"
       empcolor="#0099e5"
       empopacity="0.30196078"
       color="#0099e5"
       opacity="0.14901961"
       empspacing="8"
       enabled="true"
       visible="true" />
    <inkscape:page
       x="0"
       y="0"
       width="140"
       height="100"
       id="page2"
       margin="0"
       bleed="0" />
  </sodipodi:namedview>
  <defs
     id="defs1" />
  <g
     inkscape:label="ICONS"
     inkscape:groupmode="layer"
     id="layer1">
    <g
       inkscape:groupmode="layer"
       id="g26"
       inkscape:label="studio"
       style="display:inline"
       transform="translate(-1480,-125)">
      <path
         id="rect69"
         style="opacity:1;fill:#ffffff;fill-opacity:0.997537;fill-rule:evenodd;stroke:none;stroke-width:0.999999;stroke-linecap:round;stroke-linejoin:round;stroke-dasharray:none"
         d="m 1499,169 c -1.108,0 -2,0.892 -2,2 v 8 c 0,1.108 0.892,2 2,2 h 4 v -12 z m 5,0 v 12 h 92 v -12 z m 93,0 v 12 h 4 c 1.108,0 2,-0.892 2,-2 v -8 c 0,-1.108 -0.892,-2 -2,-2 z m -97,1 a 1,1 0 0 1 1,1 1,1 0 0 1 -1,1 1,1 0 0 1 -1,-1 1,1 0 0 1 1,-1 z m 100,0 a 1,1 0 0 1 1,1 1,1 0 0 1 -1,1 1,1 0 0 1 -1,-1 1,1 0 0 1 1,-1 z m -60.0645,1.00391 c 0.8973,-0.0153 1.805,0.2681 2.5586,0.86914 1.7224,1.37379 2.0067,3.89863 0.6329,5.62109 -1.3738,1.72245 -3.8986,2.0066 -5.6211,0.63281 -1.7224,-1.37379 -2.0067,-3.89863 -0.6329,-5.62109 0.7728,-0.96888 1.909,-1.48229 3.0625,-1.50195 z m 0.01,0.99414 c -0.8605,0.0156 -1.7075,0.40169 -2.2891,1.13086 -1.0368,1.29995 -0.8254,3.17996 0.4746,4.21679 1.2999,1.03682 3.18,0.82533 4.2168,-0.47461 0.9305,-1.16667 0.8536,-2.79893 -0.1113,-3.87109 l -1.2207,1.5293 -0.7813,-0.62305 1.2207,-1.5293 c -0.4724,-0.26336 -0.9935,-0.38827 -1.5097,-0.3789 z M 1515.5,172 h 15 a 0.50005,0.50005 0 0 1 0.5,0.5 v 5 a 0.50005,0.50005 0 0 1 -0.5,0.5 h -15 a 0.50005,0.50005 0 0 1 -0.5,-0.5 v -5 a 0.50005,0.50005 0 0 1 0.5,-0.5 z m 0.5,1 v 4 h 14 v -4 z m -6,0.5 c 0.8225,0 1.5,0.6775 1.5,1.5 0,0.8225 -0.6775,1.5 -1.5,1.5 -0.8225,0 -1.5,-0.6775 -1.5,-1.5 0,-0.8225 0.6775,-1.5 1.5,-1.5 z m 0,1 c -0.2821,0 -0.5,0.21794 -0.5,0.5 0,0.28206 0.2179,0.5 0.5,0.5 0.2821,0 0.5,-0.21794 0.5,-0.5 0,-0.28206 -0.2179,-0.5 -0.5,-0.5 z m -10,3.5 a 1,1 0 0 1 1,1 1,1 0 0 1 -1,1 1,1 0 0 1 -1,-1 1,1 0 0 1 1,-1 z m 100,0 a 1,1 0 0 1 1,1 1,1 0 0 1 -1,1 1,1 0 0 1 -1,-1 1,1 0 0 1 1,-1 z" />
    </g>
  </g>
</svg>
